<mxfile host="app.diagrams.net" agent="Mozilla/5.0 (X11; Linux x86_64; rv:128.0) Gecko/20100101 Firefox/128.0" version="26.0.11">
  <diagram name="Page-1" id="Wj2mNhzuCTzCnwJhsY29">
    <mxGraphModel dx="2067" dy="626" grid="1" gridSize="10" guides="1" tooltips="1" connect="1" arrows="1" fold="1" page="1" pageScale="1" pageWidth="850" pageHeight="1100" math="0" shadow="0">
      <root>
        <mxCell id="0" />
        <mxCell id="1" parent="0" />
        <mxCell id="efL6EffcdtNfB5VjuBj9-4" value="" style="edgeStyle=orthogonalEdgeStyle;rounded=0;orthogonalLoop=1;jettySize=auto;html=1;" edge="1" parent="1" source="efL6EffcdtNfB5VjuBj9-1" target="efL6EffcdtNfB5VjuBj9-3">
          <mxGeometry relative="1" as="geometry" />
        </mxCell>
        <mxCell id="efL6EffcdtNfB5VjuBj9-1" value="INICIO" style="ellipse;whiteSpace=wrap;html=1;" vertex="1" parent="1">
          <mxGeometry x="-90" y="30" width="120" height="40" as="geometry" />
        </mxCell>
        <mxCell id="efL6EffcdtNfB5VjuBj9-13" value="" style="edgeStyle=orthogonalEdgeStyle;rounded=0;orthogonalLoop=1;jettySize=auto;html=1;" edge="1" parent="1" source="efL6EffcdtNfB5VjuBj9-2" target="efL6EffcdtNfB5VjuBj9-12">
          <mxGeometry relative="1" as="geometry" />
        </mxCell>
        <mxCell id="efL6EffcdtNfB5VjuBj9-2" value="n" style="shape=parallelogram;perimeter=parallelogramPerimeter;whiteSpace=wrap;html=1;fixedSize=1;" vertex="1" parent="1">
          <mxGeometry x="-80" y="270" width="100" height="30" as="geometry" />
        </mxCell>
        <mxCell id="efL6EffcdtNfB5VjuBj9-7" value="" style="edgeStyle=orthogonalEdgeStyle;rounded=0;orthogonalLoop=1;jettySize=auto;html=1;" edge="1" parent="1" source="efL6EffcdtNfB5VjuBj9-3" target="efL6EffcdtNfB5VjuBj9-6">
          <mxGeometry relative="1" as="geometry" />
        </mxCell>
        <mxCell id="efL6EffcdtNfB5VjuBj9-3" value="&quot;Sistema de datos FCMF&quot;" style="shape=document;whiteSpace=wrap;html=1;boundedLbl=1;" vertex="1" parent="1">
          <mxGeometry x="-90" y="100" width="120" height="60" as="geometry" />
        </mxCell>
        <mxCell id="efL6EffcdtNfB5VjuBj9-8" value="" style="edgeStyle=orthogonalEdgeStyle;rounded=0;orthogonalLoop=1;jettySize=auto;html=1;" edge="1" parent="1" source="efL6EffcdtNfB5VjuBj9-6" target="efL6EffcdtNfB5VjuBj9-2">
          <mxGeometry relative="1" as="geometry" />
        </mxCell>
        <mxCell id="efL6EffcdtNfB5VjuBj9-6" value="&quot;Introduzca la cantidad de almnos a procesar&quot;" style="shape=document;whiteSpace=wrap;html=1;boundedLbl=1;" vertex="1" parent="1">
          <mxGeometry x="-90" y="180" width="120" height="60" as="geometry" />
        </mxCell>
        <mxCell id="efL6EffcdtNfB5VjuBj9-19" style="edgeStyle=orthogonalEdgeStyle;rounded=0;orthogonalLoop=1;jettySize=auto;html=1;entryX=0.5;entryY=0;entryDx=0;entryDy=0;" edge="1" parent="1" source="efL6EffcdtNfB5VjuBj9-12" target="efL6EffcdtNfB5VjuBj9-14">
          <mxGeometry relative="1" as="geometry" />
        </mxCell>
        <mxCell id="efL6EffcdtNfB5VjuBj9-12" value="Alumno alumnos[n];&lt;br&gt;&lt;div&gt;size_t i = 0&lt;/div&gt;" style="rounded=0;whiteSpace=wrap;html=1;" vertex="1" parent="1">
          <mxGeometry x="-95" y="320" width="130" height="50" as="geometry" />
        </mxCell>
        <mxCell id="efL6EffcdtNfB5VjuBj9-22" value="" style="edgeStyle=orthogonalEdgeStyle;rounded=0;orthogonalLoop=1;jettySize=auto;html=1;" edge="1" parent="1" source="efL6EffcdtNfB5VjuBj9-14" target="efL6EffcdtNfB5VjuBj9-21">
          <mxGeometry relative="1" as="geometry" />
        </mxCell>
        <mxCell id="efL6EffcdtNfB5VjuBj9-70" style="edgeStyle=orthogonalEdgeStyle;rounded=0;orthogonalLoop=1;jettySize=auto;html=1;entryX=1;entryY=0.5;entryDx=0;entryDy=0;exitX=0;exitY=0.5;exitDx=0;exitDy=0;" edge="1" parent="1" source="efL6EffcdtNfB5VjuBj9-21" target="efL6EffcdtNfB5VjuBj9-69">
          <mxGeometry relative="1" as="geometry" />
        </mxCell>
        <mxCell id="efL6EffcdtNfB5VjuBj9-14" value="" style="ellipse;whiteSpace=wrap;html=1;aspect=fixed;" vertex="1" parent="1">
          <mxGeometry x="-40" y="390" width="20" height="20" as="geometry" />
        </mxCell>
        <mxCell id="efL6EffcdtNfB5VjuBj9-25" value="" style="edgeStyle=orthogonalEdgeStyle;rounded=0;orthogonalLoop=1;jettySize=auto;html=1;" edge="1" parent="1" source="efL6EffcdtNfB5VjuBj9-21" target="efL6EffcdtNfB5VjuBj9-24">
          <mxGeometry relative="1" as="geometry" />
        </mxCell>
        <mxCell id="efL6EffcdtNfB5VjuBj9-66" value="" style="edgeStyle=orthogonalEdgeStyle;rounded=0;orthogonalLoop=1;jettySize=auto;html=1;" edge="1" parent="1" source="efL6EffcdtNfB5VjuBj9-21" target="efL6EffcdtNfB5VjuBj9-24">
          <mxGeometry relative="1" as="geometry" />
        </mxCell>
        <mxCell id="efL6EffcdtNfB5VjuBj9-68" value="" style="edgeStyle=orthogonalEdgeStyle;rounded=0;orthogonalLoop=1;jettySize=auto;html=1;" edge="1" parent="1" source="efL6EffcdtNfB5VjuBj9-21" target="efL6EffcdtNfB5VjuBj9-24">
          <mxGeometry relative="1" as="geometry" />
        </mxCell>
        <mxCell id="efL6EffcdtNfB5VjuBj9-21" value="i&amp;lt;n" style="rhombus;whiteSpace=wrap;html=1;" vertex="1" parent="1">
          <mxGeometry x="-70" y="430" width="80" height="30" as="geometry" />
        </mxCell>
        <mxCell id="efL6EffcdtNfB5VjuBj9-27" value="" style="edgeStyle=orthogonalEdgeStyle;rounded=0;orthogonalLoop=1;jettySize=auto;html=1;" edge="1" parent="1" source="efL6EffcdtNfB5VjuBj9-24" target="efL6EffcdtNfB5VjuBj9-26">
          <mxGeometry relative="1" as="geometry" />
        </mxCell>
        <mxCell id="efL6EffcdtNfB5VjuBj9-24" value="&lt;div&gt;Alumno* alumno = alumnos+i;&lt;/div&gt;" style="whiteSpace=wrap;html=1;" vertex="1" parent="1">
          <mxGeometry x="-120" y="490" width="180" height="40" as="geometry" />
        </mxCell>
        <mxCell id="efL6EffcdtNfB5VjuBj9-29" value="" style="edgeStyle=orthogonalEdgeStyle;rounded=0;orthogonalLoop=1;jettySize=auto;html=1;" edge="1" parent="1" source="efL6EffcdtNfB5VjuBj9-26" target="efL6EffcdtNfB5VjuBj9-28">
          <mxGeometry relative="1" as="geometry" />
        </mxCell>
        <mxCell id="efL6EffcdtNfB5VjuBj9-26" value="alumno-&amp;gt;nombre;" style="shape=parallelogram;perimeter=parallelogramPerimeter;whiteSpace=wrap;html=1;fixedSize=1;" vertex="1" parent="1">
          <mxGeometry x="-90" y="550" width="120" height="40" as="geometry" />
        </mxCell>
        <mxCell id="efL6EffcdtNfB5VjuBj9-32" value="" style="edgeStyle=orthogonalEdgeStyle;rounded=0;orthogonalLoop=1;jettySize=auto;html=1;" edge="1" parent="1" source="efL6EffcdtNfB5VjuBj9-28" target="efL6EffcdtNfB5VjuBj9-31">
          <mxGeometry relative="1" as="geometry" />
        </mxCell>
        <mxCell id="efL6EffcdtNfB5VjuBj9-28" value="alumno-&amp;gt;carrera;" style="shape=parallelogram;perimeter=parallelogramPerimeter;whiteSpace=wrap;html=1;fixedSize=1;" vertex="1" parent="1">
          <mxGeometry x="-90" y="620" width="120" height="40" as="geometry" />
        </mxCell>
        <mxCell id="efL6EffcdtNfB5VjuBj9-35" value="" style="edgeStyle=orthogonalEdgeStyle;rounded=0;orthogonalLoop=1;jettySize=auto;html=1;" edge="1" parent="1" source="efL6EffcdtNfB5VjuBj9-30" target="efL6EffcdtNfB5VjuBj9-34">
          <mxGeometry relative="1" as="geometry" />
        </mxCell>
        <mxCell id="efL6EffcdtNfB5VjuBj9-44" value="" style="edgeStyle=orthogonalEdgeStyle;rounded=0;orthogonalLoop=1;jettySize=auto;html=1;" edge="1" parent="1" source="efL6EffcdtNfB5VjuBj9-30" target="efL6EffcdtNfB5VjuBj9-43">
          <mxGeometry relative="1" as="geometry" />
        </mxCell>
        <mxCell id="efL6EffcdtNfB5VjuBj9-30" value="*ptr != &#39;\0&#39;" style="rhombus;whiteSpace=wrap;html=1;" vertex="1" parent="1">
          <mxGeometry x="-95" y="800" width="130" height="40" as="geometry" />
        </mxCell>
        <mxCell id="efL6EffcdtNfB5VjuBj9-37" value="" style="edgeStyle=orthogonalEdgeStyle;rounded=0;orthogonalLoop=1;jettySize=auto;html=1;" edge="1" parent="1" source="efL6EffcdtNfB5VjuBj9-31" target="efL6EffcdtNfB5VjuBj9-36">
          <mxGeometry relative="1" as="geometry" />
        </mxCell>
        <mxCell id="efL6EffcdtNfB5VjuBj9-31" value="&lt;div&gt;char* ptr = alumno-&amp;gt;carrera;&lt;br&gt;&lt;/div&gt;" style="rounded=0;whiteSpace=wrap;html=1;" vertex="1" parent="1">
          <mxGeometry x="-110" y="690" width="160" height="40" as="geometry" />
        </mxCell>
        <mxCell id="efL6EffcdtNfB5VjuBj9-42" style="edgeStyle=orthogonalEdgeStyle;rounded=0;orthogonalLoop=1;jettySize=auto;html=1;entryX=0;entryY=0.5;entryDx=0;entryDy=0;" edge="1" parent="1" source="efL6EffcdtNfB5VjuBj9-34" target="efL6EffcdtNfB5VjuBj9-36">
          <mxGeometry relative="1" as="geometry">
            <Array as="points">
              <mxPoint x="-130" y="900" />
              <mxPoint x="-130" y="760" />
            </Array>
          </mxGeometry>
        </mxCell>
        <mxCell id="efL6EffcdtNfB5VjuBj9-34" value="&lt;div&gt;*ptr=toupper(*ptr);&lt;/div&gt;++ptr;" style="whiteSpace=wrap;html=1;" vertex="1" parent="1">
          <mxGeometry x="-90" y="870" width="120" height="60" as="geometry" />
        </mxCell>
        <mxCell id="efL6EffcdtNfB5VjuBj9-41" style="edgeStyle=orthogonalEdgeStyle;rounded=0;orthogonalLoop=1;jettySize=auto;html=1;exitX=0.5;exitY=1;exitDx=0;exitDy=0;entryX=0.5;entryY=0;entryDx=0;entryDy=0;" edge="1" parent="1" source="efL6EffcdtNfB5VjuBj9-36" target="efL6EffcdtNfB5VjuBj9-30">
          <mxGeometry relative="1" as="geometry" />
        </mxCell>
        <mxCell id="efL6EffcdtNfB5VjuBj9-36" value="" style="ellipse;whiteSpace=wrap;html=1;aspect=fixed;" vertex="1" parent="1">
          <mxGeometry x="-40" y="750" width="20" height="20" as="geometry" />
        </mxCell>
        <mxCell id="efL6EffcdtNfB5VjuBj9-43" value="1" style="ellipse;whiteSpace=wrap;html=1;aspect=fixed;" vertex="1" parent="1">
          <mxGeometry x="60" y="795" width="50" height="50" as="geometry" />
        </mxCell>
        <mxCell id="efL6EffcdtNfB5VjuBj9-47" value="" style="edgeStyle=orthogonalEdgeStyle;rounded=0;orthogonalLoop=1;jettySize=auto;html=1;" edge="1" parent="1" source="efL6EffcdtNfB5VjuBj9-45" target="efL6EffcdtNfB5VjuBj9-46">
          <mxGeometry relative="1" as="geometry" />
        </mxCell>
        <mxCell id="efL6EffcdtNfB5VjuBj9-45" value="1" style="ellipse;whiteSpace=wrap;html=1;aspect=fixed;" vertex="1" parent="1">
          <mxGeometry x="209.37" y="10" width="50" height="50" as="geometry" />
        </mxCell>
        <mxCell id="efL6EffcdtNfB5VjuBj9-49" value="" style="edgeStyle=orthogonalEdgeStyle;rounded=0;orthogonalLoop=1;jettySize=auto;html=1;" edge="1" parent="1" source="efL6EffcdtNfB5VjuBj9-46" target="efL6EffcdtNfB5VjuBj9-48">
          <mxGeometry relative="1" as="geometry" />
        </mxCell>
        <mxCell id="efL6EffcdtNfB5VjuBj9-46" value="alumno-&amp;gt;matricula" style="shape=parallelogram;perimeter=parallelogramPerimeter;whiteSpace=wrap;html=1;fixedSize=1;" vertex="1" parent="1">
          <mxGeometry x="161.87" y="80" width="145" height="40" as="geometry" />
        </mxCell>
        <mxCell id="efL6EffcdtNfB5VjuBj9-52" value="" style="edgeStyle=orthogonalEdgeStyle;rounded=0;orthogonalLoop=1;jettySize=auto;html=1;" edge="1" parent="1" source="efL6EffcdtNfB5VjuBj9-48" target="efL6EffcdtNfB5VjuBj9-51">
          <mxGeometry relative="1" as="geometry" />
        </mxCell>
        <mxCell id="efL6EffcdtNfB5VjuBj9-48" value="alumno-&amp;gt;sem_cursados" style="shape=parallelogram;perimeter=parallelogramPerimeter;whiteSpace=wrap;html=1;fixedSize=1;" vertex="1" parent="1">
          <mxGeometry x="151.25" y="150" width="167.5" height="40" as="geometry" />
        </mxCell>
        <mxCell id="efL6EffcdtNfB5VjuBj9-76" style="edgeStyle=orthogonalEdgeStyle;rounded=0;orthogonalLoop=1;jettySize=auto;html=1;entryX=0.5;entryY=0;entryDx=0;entryDy=0;" edge="1" parent="1" source="efL6EffcdtNfB5VjuBj9-51" target="efL6EffcdtNfB5VjuBj9-75">
          <mxGeometry relative="1" as="geometry" />
        </mxCell>
        <mxCell id="efL6EffcdtNfB5VjuBj9-51" value="&lt;div&gt;alumno-&amp;gt;prom_general=0;&lt;/div&gt;&lt;div&gt;size_t j = 0;&lt;br&gt;&lt;/div&gt;" style="whiteSpace=wrap;html=1;" vertex="1" parent="1">
          <mxGeometry x="161.87" y="220" width="145" height="50" as="geometry" />
        </mxCell>
        <mxCell id="efL6EffcdtNfB5VjuBj9-57" value="" style="edgeStyle=orthogonalEdgeStyle;rounded=0;orthogonalLoop=1;jettySize=auto;html=1;" edge="1" parent="1" source="efL6EffcdtNfB5VjuBj9-53" target="efL6EffcdtNfB5VjuBj9-56">
          <mxGeometry relative="1" as="geometry" />
        </mxCell>
        <mxCell id="efL6EffcdtNfB5VjuBj9-61" style="edgeStyle=orthogonalEdgeStyle;rounded=0;orthogonalLoop=1;jettySize=auto;html=1;entryX=0.5;entryY=0;entryDx=0;entryDy=0;exitX=1;exitY=0.5;exitDx=0;exitDy=0;" edge="1" parent="1" source="efL6EffcdtNfB5VjuBj9-53" target="efL6EffcdtNfB5VjuBj9-62">
          <mxGeometry relative="1" as="geometry">
            <mxPoint x="370" y="590" as="targetPoint" />
            <Array as="points">
              <mxPoint x="360" y="355" />
              <mxPoint x="360" y="550" />
              <mxPoint x="234" y="550" />
            </Array>
          </mxGeometry>
        </mxCell>
        <mxCell id="efL6EffcdtNfB5VjuBj9-53" value="j &amp;lt; alumno-&amp;gt;sem_cursados" style="rhombus;whiteSpace=wrap;html=1;" vertex="1" parent="1">
          <mxGeometry x="145" y="330" width="180" height="50" as="geometry" />
        </mxCell>
        <mxCell id="efL6EffcdtNfB5VjuBj9-60" style="edgeStyle=orthogonalEdgeStyle;rounded=0;orthogonalLoop=1;jettySize=auto;html=1;exitX=0;exitY=0.5;exitDx=0;exitDy=0;entryX=0;entryY=0.5;entryDx=0;entryDy=0;" edge="1" parent="1" source="efL6EffcdtNfB5VjuBj9-55" target="efL6EffcdtNfB5VjuBj9-75">
          <mxGeometry relative="1" as="geometry">
            <mxPoint x="140" y="350" as="targetPoint" />
            <Array as="points">
              <mxPoint x="120" y="500" />
              <mxPoint x="120" y="300" />
            </Array>
          </mxGeometry>
        </mxCell>
        <mxCell id="efL6EffcdtNfB5VjuBj9-55" value="&lt;div&gt;alumno-&amp;gt;prom_general = alumno-&amp;gt;promedios[j];&lt;/div&gt;&lt;div&gt;++j;&lt;br&gt; &lt;/div&gt;" style="rounded=0;whiteSpace=wrap;html=1;" vertex="1" parent="1">
          <mxGeometry x="145" y="470" width="178.75" height="60" as="geometry" />
        </mxCell>
        <mxCell id="efL6EffcdtNfB5VjuBj9-59" value="" style="edgeStyle=orthogonalEdgeStyle;rounded=0;orthogonalLoop=1;jettySize=auto;html=1;" edge="1" parent="1" source="efL6EffcdtNfB5VjuBj9-56" target="efL6EffcdtNfB5VjuBj9-55">
          <mxGeometry relative="1" as="geometry" />
        </mxCell>
        <mxCell id="efL6EffcdtNfB5VjuBj9-56" value="alumno-&amp;gt;promedios[j]" style="shape=parallelogram;perimeter=parallelogramPerimeter;whiteSpace=wrap;html=1;fixedSize=1;" vertex="1" parent="1">
          <mxGeometry x="151.25" y="400" width="167.5" height="40" as="geometry" />
        </mxCell>
        <mxCell id="efL6EffcdtNfB5VjuBj9-63" style="edgeStyle=orthogonalEdgeStyle;rounded=0;orthogonalLoop=1;jettySize=auto;html=1;entryX=1;entryY=0.5;entryDx=0;entryDy=0;exitX=0;exitY=0.5;exitDx=0;exitDy=0;" edge="1" parent="1" source="efL6EffcdtNfB5VjuBj9-62" target="efL6EffcdtNfB5VjuBj9-14">
          <mxGeometry relative="1" as="geometry">
            <Array as="points">
              <mxPoint x="80" y="615" />
              <mxPoint x="80" y="400" />
            </Array>
          </mxGeometry>
        </mxCell>
        <mxCell id="efL6EffcdtNfB5VjuBj9-62" value="&lt;div&gt;alumno-&amp;gt;prom_general /= alumno-&amp;gt;sem_cursados;&lt;br&gt;&lt;/div&gt;&lt;div&gt;++i;&lt;br&gt;&lt;/div&gt;" style="whiteSpace=wrap;html=1;" vertex="1" parent="1">
          <mxGeometry x="155.31" y="580" width="158.12" height="70" as="geometry" />
        </mxCell>
        <mxCell id="efL6EffcdtNfB5VjuBj9-69" value="2" style="ellipse;whiteSpace=wrap;html=1;aspect=fixed;" vertex="1" parent="1">
          <mxGeometry x="-160" y="390" width="50" height="50" as="geometry" />
        </mxCell>
        <mxCell id="efL6EffcdtNfB5VjuBj9-71" value="V" style="text;html=1;align=center;verticalAlign=middle;whiteSpace=wrap;rounded=0;" vertex="1" parent="1">
          <mxGeometry x="-40" y="460" width="60" height="30" as="geometry" />
        </mxCell>
        <mxCell id="efL6EffcdtNfB5VjuBj9-72" value="F" style="text;html=1;align=center;verticalAlign=middle;whiteSpace=wrap;rounded=0;" vertex="1" parent="1">
          <mxGeometry x="-120" y="385" width="60" height="30" as="geometry" />
        </mxCell>
        <mxCell id="efL6EffcdtNfB5VjuBj9-73" value="V" style="text;html=1;align=center;verticalAlign=middle;whiteSpace=wrap;rounded=0;" vertex="1" parent="1">
          <mxGeometry x="-40" y="840" width="60" height="30" as="geometry" />
        </mxCell>
        <mxCell id="efL6EffcdtNfB5VjuBj9-74" value="F" style="text;html=1;align=center;verticalAlign=middle;whiteSpace=wrap;rounded=0;" vertex="1" parent="1">
          <mxGeometry x="20" y="780" width="60" height="30" as="geometry" />
        </mxCell>
        <mxCell id="efL6EffcdtNfB5VjuBj9-78" style="edgeStyle=orthogonalEdgeStyle;rounded=0;orthogonalLoop=1;jettySize=auto;html=1;exitX=0.5;exitY=1;exitDx=0;exitDy=0;entryX=0.5;entryY=0;entryDx=0;entryDy=0;" edge="1" parent="1" source="efL6EffcdtNfB5VjuBj9-75" target="efL6EffcdtNfB5VjuBj9-53">
          <mxGeometry relative="1" as="geometry" />
        </mxCell>
        <mxCell id="efL6EffcdtNfB5VjuBj9-75" value="" style="ellipse;whiteSpace=wrap;html=1;aspect=fixed;" vertex="1" parent="1">
          <mxGeometry x="224.37" y="290" width="20" height="20" as="geometry" />
        </mxCell>
        <mxCell id="efL6EffcdtNfB5VjuBj9-79" value="V" style="text;html=1;align=center;verticalAlign=middle;whiteSpace=wrap;rounded=0;" vertex="1" parent="1">
          <mxGeometry x="224.37" y="370" width="60" height="30" as="geometry" />
        </mxCell>
        <mxCell id="efL6EffcdtNfB5VjuBj9-81" value="F" style="text;html=1;align=center;verticalAlign=middle;whiteSpace=wrap;rounded=0;" vertex="1" parent="1">
          <mxGeometry x="306.87" y="330" width="60" height="30" as="geometry" />
        </mxCell>
      </root>
    </mxGraphModel>
  </diagram>
</mxfile>
